# xmcd CD database file
#
# Track frame offsets:
#	150
#	12044
#	23355
#	33453
#	45146
#	56071
#	70170
#	81127
#	91956
#	106067
#	116495
#	129567
#	142784
#	154842
#	166604
#	176801
#	188511
#	200590
#	211925
#	222075
#
# Disc length: 3143 seconds
#
# Revision: 0
# Processed by: cddbd v1.5.2PL0 Copyright (c) Steve Scherf et al.
# Submitted via: CDex 1.90
#
DISCID=f60c4514
DTITLE=Patsy Cline - The Absolutely Essential CD Collection - Disc1
DYEAR=2013
DGENRE=Country
TTITLE0=Walkin' After Midnight
TTITLE1=Don't Ever Leave Me Again
TTITLE2=I'm Blue Again
TTITLE3=Crazy Dreams
TTITLE4=I Can See An Angel
TTITLE5=A Church, A Courtroom, And Then Goodbye
TTITLE6=Gotta Lot of Rhythm in My Soul
TTITLE7=San Antonio Rose
TTITLE8=You Belong to Me
TTITLE9=I Love You So Much It Hurts
TTITLE10=Yes, I Understand
TTITLE11=If I Could See the World (Through the Eyes of a Child)
TTITLE12=Today, Tomorrow and Forever
TTITLE13=I've Lost And Loved Again
TTITLE14=Turn The Cards Slowly
TTITLE15=That Wonderful Someone
TTITLE16=Let The Teardrops Fall
TTITLE17=There He Goes
TTITLE18=Have You Ever Been Lonely (Have You Ever Been Blue) 
TTITLE19=So Wrong
EXTD=YEAR: 2013
EXTT0=
EXTT1=
EXTT2=
EXTT3=
EXTT4=
EXTT5=
EXTT6=
EXTT7=
EXTT8=
EXTT9=
EXTT10=
EXTT11=
EXTT12=
EXTT13=
EXTT14=
EXTT15=
EXTT16=
EXTT17=
EXTT18=
EXTT19=
PLAYORDER=
